<svg width="349" height="420" viewBox="0 0 349 420" fill="none" xmlns="http://www.w3.org/2000/svg">
<rect x="20" y="20" width="329" height="400" rx="40" fill="#ABFCF1"/>
<rect x="1.5" y="1.5" width="326" height="397" rx="38.5" fill="white" stroke="#00393F" stroke-width="3"/>
<rect x="50" y="180" width="229" height="20" rx="10" fill="#D0EAE6"/>
<rect x="50" y="220" width="229" height="20" rx="10" fill="#D0EAE6"/>
<rect x="50" y="260" width="229" height="20" rx="10" fill="#D0EAE6"/>
<rect x="45" y="45" width="110" height="110" stroke="#F7CDE4" stroke-width="2" stroke-dasharray="4 4"/>
<rect x="51.5" y="51.5" width="97" height="97" rx="19.5" fill="#D0EAE6" stroke="#00393F" stroke-width="3"/>
<rect x="41" y="41" width="8" height="8" fill="white" stroke="#F13299" stroke-width="2"/>
<rect x="41" y="151" width="8" height="8" fill="white" stroke="#F13299" stroke-width="2"/>
<rect x="151" y="41" width="8" height="8" fill="white" stroke="#F13299" stroke-width="2"/>
<rect x="97" y="42" width="6" height="6" fill="#F13299"/>
<rect x="152" y="97" width="6" height="6" fill="#F13299"/>
<rect x="97" y="152" width="6" height="6" fill="#F13299"/>
<rect x="42" y="97" width="6" height="6" fill="#F13299"/>
<rect x="151" y="151" width="8" height="8" fill="white" stroke="#F13299" stroke-width="2"/>
<g filter="url(#filter0_d)">
<rect x="160" y="300" width="119" height="50" rx="25" fill="#F13299"/>
</g>
<rect x="186" y="318" width="67" height="14" fill="#C70C71"/>
<defs>
<filter id="filter0_d" x="160" y="300" width="119" height="54" filterUnits="userSpaceOnUse" color-interpolation-filters="sRGB">
<feFlood flood-opacity="0" result="BackgroundImageFix"/>
<feColorMatrix in="SourceAlpha" type="matrix" values="0 0 0 0 0 0 0 0 0 0 0 0 0 0 0 0 0 0 127 0"/>
<feOffset dy="4"/>
<feColorMatrix type="matrix" values="0 0 0 0 0.986875 0 0 0 0 0.896458 0 0 0 0 0.945217 0 0 0 1 0"/>
<feBlend mode="normal" in2="BackgroundImageFix" result="effect1_dropShadow"/>
<feBlend mode="normal" in="SourceGraphic" in2="effect1_dropShadow" result="shape"/>
</filter>
</defs>
</svg>
