<svg width="200" height="200" viewBox="0 0 200 200" fill="none" xmlns="http://www.w3.org/2000/svg">
<path d="M143.672 61.2242L162.461 79.6771V144.814C162.461 154.56 154.56 162.461 144.814 162.461H55.1855C45.4396 162.461 37.5391 154.56 37.5391 144.814V79.6768L56.1958 61.02L143.672 61.2242Z" fill="#DEFCF8"/>
<path d="M121.069 121.069L143.672 98.4659V45.1562C143.672 40.9493 140.262 37.5391 136.055 37.5391H63.9453C59.7383 37.5391 56.3281 40.9493 56.3281 45.1562V98.4659L78.9311 121.069L100 109.612L121.069 121.069Z" fill="white"/>
<path d="M143.672 61.2242L162.461 79.6769L143.672 98.4659V61.2242Z" fill="#8DEBDD"/>
<path d="M56.3281 61.2242L37.5391 79.6769L56.3281 98.4659V61.2242Z" fill="#8DEBDD"/>
<path d="M130.123 159.922H130.091C128.689 159.922 127.552 161.059 127.552 162.461C127.552 163.863 128.689 165 130.091 165H130.123C131.525 165 132.662 163.863 132.662 162.461C132.662 161.059 131.525 159.922 130.123 159.922Z" fill="#00393F"/>
<path d="M164.25 77.8751L146.211 59.9633V45.1562C146.211 39.5561 141.655 35 136.055 35H63.9453C58.3452 35 53.7891 39.5561 53.7891 45.1562V59.8361L35.7437 77.8812C35.2676 78.3578 35 79.0035 35 79.6768V144.814C35 155.945 44.0553 165 55.1855 165H118.772C120.174 165 121.311 163.863 121.311 162.461C121.311 161.059 120.174 159.922 118.772 159.922H55.1855C52.2131 159.922 49.4409 159.056 47.1014 157.567L51.8614 152.807H90.8589C92.2609 152.807 93.3979 151.67 93.3979 150.268C93.3979 148.866 92.2609 147.729 90.8589 147.729H56.9393L87.2267 117.442C94.2701 110.398 105.73 110.398 112.773 117.442L152.898 157.567C150.559 159.056 147.787 159.922 144.814 159.922H141.387C139.985 159.922 138.848 161.059 138.848 162.461C138.848 163.863 139.985 165 141.387 165H144.814C149.986 165 154.708 163.043 158.284 159.833C158.371 159.766 158.457 159.695 158.537 159.615C158.57 159.581 158.6 159.545 158.632 159.51C162.548 155.826 165 150.603 165 144.814V79.6768C165 79.0004 164.73 78.3517 164.25 77.8751ZM158.864 79.6832L146.211 92.3361V67.1196L158.864 79.6832ZM53.7891 92.3361L41.1301 79.6768L53.7891 67.0178V92.3361ZM40.0781 144.814V85.8069L75.8789 121.608L43.3279 154.159C41.2956 151.585 40.0781 148.34 40.0781 144.814ZM83.636 113.851L79.4699 118.017L58.8672 97.4142V45.1562C58.8672 42.3562 61.1452 40.0781 63.9453 40.0781H136.055C138.855 40.0781 141.133 42.3562 141.133 45.1562V97.4142L120.53 118.017L116.364 113.851C107.341 104.828 92.6591 104.828 83.636 113.851ZM156.672 154.159L124.121 121.608L159.922 85.8069V144.814C159.922 148.34 158.704 151.586 156.672 154.159Z" fill="#00393F"/>
<path d="M76.0132 63.4375H101.523C102.925 63.4375 104.062 62.3005 104.062 60.8984C104.062 59.4964 102.925 58.3594 101.523 58.3594H76.0132C74.6111 58.3594 73.4741 59.4964 73.4741 60.8984C73.4741 62.3005 74.6111 63.4375 76.0132 63.4375Z" fill="#00393F"/>
<path d="M113.287 63.4375C113.955 63.4375 114.61 63.1658 115.085 62.6933C115.557 62.2213 115.826 61.5662 115.826 60.8984C115.826 60.2307 115.557 59.5756 115.085 59.1033C114.61 58.6311 113.955 58.3594 113.287 58.3594C112.619 58.3594 111.964 58.6308 111.492 59.1033C111.019 59.5758 110.748 60.2307 110.748 60.8984C110.748 61.5662 111.019 62.2213 111.492 62.6933C111.967 63.1658 112.619 63.4375 113.287 63.4375Z" fill="#00393F"/>
<path d="M76.0132 81.7188H123.986C125.389 81.7188 126.526 80.5818 126.526 79.1797C126.526 77.7776 125.389 76.6406 123.986 76.6406H76.0132C74.6111 76.6406 73.4741 77.7776 73.4741 79.1797C73.4741 80.5818 74.6111 81.7188 76.0132 81.7188Z" fill="#00393F"/>
<path d="M126.526 97.4609C126.526 96.0589 125.389 94.9219 123.987 94.9219H76.0132C74.6111 94.9219 73.4741 96.0589 73.4741 97.4609C73.4741 98.863 74.6111 100 76.0132 100H123.986C125.389 100 126.526 98.863 126.526 97.4609Z" fill="#00393F"/>
</svg>
