<svg width="237" height="50" viewBox="0 0 237 50" fill="none" xmlns="http://www.w3.org/2000/svg">
<path d="M24.9726 49.3486C38.5769 49.3486 49.6054 38.3201 49.6054 24.7158C49.6054 11.1115 38.5769 0.0830078 24.9726 0.0830078C11.3683 0.0830078 0.339844 11.1115 0.339844 24.7158C0.339844 38.3201 11.3683 49.3486 24.9726 49.3486Z" fill="white"/>
<path d="M31.4727 0.833107C21.7078 -1.78459 11.1635 1.90666 5.04573 9.93621C-3.26323 20.9511 -1.08672 36.6278 9.92818 44.9368C12.5017 46.878 15.4283 48.3045 18.5313 49.1428C31.8697 52.7164 45.5611 44.7898 49.1347 31.4513C52.723 18.1128 44.8111 4.4067 31.4727 0.833107ZM45.1788 12.7745L43.6346 13.3039L40.1787 11.598L38.0169 10.1715C37.8845 10.0833 37.7375 10.0391 37.5757 10.0391L34.3845 9.98033L33.1933 9.18619L34.6786 7.49499L37.3992 8.2303C37.5169 8.25971 37.6493 8.27442 37.7816 8.245L40.9434 7.59793C42.6052 9.11267 44.0317 10.848 45.1788 12.7745ZM21.9578 1.70077L23.5461 3.50962C23.6196 3.59786 23.7225 3.67139 23.8255 3.71551L27.5461 5.40672L26.8549 6.45085L24.6343 6.58321C24.4431 6.59791 24.252 6.67144 24.1049 6.81851L20.7666 10.0539L16.4577 11.2892L10.7811 10.6127C10.3694 10.5686 9.98701 10.8186 9.86936 11.2303L9.22228 13.6422C9.16346 13.8627 9.19287 14.0833 9.31052 14.2745L10.3105 16.0098L9.94289 17.3922L7.19284 14.2598L6.95753 10.2892C10.6929 5.62731 16.0459 2.55373 21.9578 1.70077ZM12.6047 27.4953L9.16345 25.7894L8.53109 22.7305L9.0311 20.8335L12.8253 18.6422L13.34 21.157C13.3988 21.4658 13.6341 21.7158 13.9429 21.7894L19.1195 23.1717L20.3254 27.3924C20.3989 27.6718 20.6342 27.8924 20.9137 27.9659L23.149 28.5689L21.8254 31.2454L17.9577 33.4807C17.7666 33.5984 17.6195 33.7749 17.5754 33.9807L17.0312 35.9955L13.5459 37.3926C13.2959 37.4955 13.1194 37.7014 13.0459 37.9514L12.2665 40.8632L11.3547 40.2603L10.8841 36.3484L13.0018 28.4512C13.1341 28.0689 12.9576 27.6718 12.6047 27.4953ZM6.8546 39.4073C0.795668 31.6866 0.207415 20.9805 5.41339 12.6421L5.54575 14.8334C5.56045 15.0245 5.63399 15.201 5.75164 15.3334L9.04581 19.0834L7.88403 19.7599C7.69285 19.8776 7.54578 20.054 7.50166 20.2599L6.8546 22.6717C6.82518 22.7894 6.81047 22.9217 6.83989 23.0541L7.5899 26.7012C7.64873 26.9512 7.81049 27.1718 8.04579 27.2747L11.2517 28.8483L9.2664 36.2602C9.23699 36.3631 9.23698 36.4661 9.23698 36.569L9.76641 41.025C9.79582 41.275 9.92818 41.4809 10.1341 41.6279L12.34 43.0838C12.4135 43.128 12.487 43.1721 12.5753 43.1868C13.0165 43.3044 13.4724 43.0397 13.59 42.5985L14.5606 38.9808L18.046 37.5837C18.296 37.4808 18.4724 37.2749 18.546 37.0249L19.1048 34.9366L22.8843 32.7454C23.0313 32.6572 23.1343 32.5395 23.2078 32.3925L25.0902 28.5836C25.2961 28.1718 25.1196 27.6718 24.7078 27.4659C24.6637 27.4365 24.6049 27.4218 24.5608 27.4071L21.796 26.6718L20.5901 22.4511C20.5166 22.1717 20.2813 21.9511 20.0019 21.8776L14.8694 20.4952L14.2224 17.3481C14.1635 17.0834 13.9871 16.8628 13.7518 16.7599C13.5018 16.6422 13.2223 16.6569 12.9871 16.804L11.6635 17.5687L12.0017 16.2893C12.0606 16.0687 12.0312 15.8481 11.9135 15.6569L10.9135 13.9216L11.2811 12.5392L16.4136 13.1569C16.5312 13.1716 16.6342 13.1569 16.7371 13.1274L21.4137 11.7892C21.546 11.7451 21.6637 11.6862 21.7666 11.5833L25.0314 8.42147L27.3549 8.27441C27.6197 8.25971 27.855 8.12735 28.002 7.90676L29.4579 5.70084C29.7079 5.31848 29.605 4.80377 29.2226 4.55376C29.1932 4.52435 29.1491 4.50964 29.105 4.49494L24.6637 2.46549L23.9872 1.70077C29.4873 1.40665 34.9286 3.08315 39.311 6.42144L37.6492 6.75968L34.6198 5.95084C34.311 5.86261 33.9874 5.96555 33.7815 6.20085L31.3109 8.99502C31.0021 9.33326 31.0315 9.86268 31.3844 10.1715C31.4138 10.2009 31.4433 10.2156 31.4727 10.245L33.6786 11.7009C33.8109 11.7892 33.958 11.8333 34.1198 11.8333L37.311 11.8921L39.311 13.2157C39.3405 13.2304 39.3699 13.2598 39.3993 13.2745L43.2082 15.1569C43.3993 15.2598 43.6347 15.2745 43.8405 15.201L46.0023 14.4657C46.6347 15.7157 47.1494 17.0099 47.5612 18.3481L43.2523 18.6128L39.1493 16.7451L38.2963 14.2451C38.2081 13.9804 37.9875 13.7745 37.7228 13.7157L32.8992 12.4215C32.6786 12.3627 32.458 12.3921 32.2668 12.5098L29.2079 14.2745C28.9873 14.4069 28.8256 14.6422 28.7962 14.8922L28.0903 20.7452C28.0608 21.0393 28.1785 21.3188 28.3991 21.4952L33.3845 25.4218C33.5315 25.5394 33.708 25.5982 33.8845 25.5982L36.9434 25.6424L38.3846 27.2895L37.6345 30.0836C37.6051 30.2013 37.5904 30.3336 37.6198 30.466L39.0757 37.5837L38.2669 40.6132C38.2081 40.8338 38.2375 41.0544 38.3551 41.2456L39.5905 43.378C29.4726 51.3193 14.8106 49.5545 6.8546 39.4073ZM40.8993 42.0691L39.9875 40.4956L40.7669 37.6132C40.7964 37.4955 40.8111 37.3632 40.7817 37.2308L39.3258 30.113L40.1346 27.0836C40.2081 26.8189 40.1346 26.5247 39.9581 26.3188L37.9728 24.0541C37.811 23.8776 37.5904 23.7747 37.3551 23.7747L34.208 23.7159L29.8109 20.2599L30.4138 15.2892L32.8109 13.9069L36.8698 14.9951L37.6934 17.4216C37.7669 17.6422 37.9287 17.8187 38.1345 17.9069L42.7523 20.0099C42.8699 20.0687 43.017 20.0982 43.1493 20.0834L47.9877 19.7893C49.7965 27.9365 47.0906 36.4514 40.8993 42.0691Z" fill="#00393F"/>
<path d="M39.9875 40.4957L40.8993 42.0692C47.0906 36.4515 49.7965 27.9513 47.9729 19.7894L43.1346 20.0836C43.0022 20.0983 42.8699 20.0689 42.7375 20.01L38.1198 17.907C37.9139 17.8188 37.7522 17.6276 37.6786 17.4217L36.8551 14.9952L32.7962 13.907L30.3991 15.2894L29.7961 20.26L34.1933 23.716L37.3404 23.7748C37.5757 23.7748 37.7963 23.8777 37.9581 24.0542L39.9434 26.3043C40.1346 26.5101 40.1934 26.8043 40.1198 27.069L39.311 30.0984L40.7669 37.2162C40.7963 37.3486 40.7816 37.4662 40.7522 37.5986L39.9875 40.4957Z" fill="#76B5C1"/>
<path d="M43.6345 13.2891L45.1786 12.7597C44.0168 10.8332 42.605 9.0979 40.9433 7.58317L37.7814 8.23024C37.6491 8.25965 37.5167 8.24494 37.3991 8.21553L34.6784 7.48022L33.1931 9.18614L34.3843 9.98027L37.5755 10.0391C37.7373 10.0391 37.8844 10.0832 38.0167 10.1715L40.1785 11.5979L43.6345 13.2891Z" fill="#76B5C1"/>
<path d="M23.5313 3.50954L21.9577 1.70068C16.0459 2.55364 10.6928 5.62722 6.97217 10.2891L7.20746 14.2597L9.95751 17.3921L10.3252 16.0098L9.32515 14.2744C9.2075 14.0833 9.17808 13.8627 9.23691 13.6421L9.88398 11.2303C9.98693 10.8332 10.384 10.5685 10.7958 10.6126L16.4723 11.2891L20.7812 10.0538L24.1195 6.81842C24.2666 6.68606 24.4431 6.59783 24.649 6.58312L26.8696 6.45076L27.5608 5.40663L23.8401 3.71542C23.7078 3.67131 23.6195 3.59777 23.5313 3.50954Z" fill="#76B5C1"/>
<path d="M9.1486 25.7895L12.5898 27.4954C12.9428 27.6719 13.1193 28.069 13.0163 28.4513L10.8986 36.3485L11.3692 40.2604L12.281 40.8633L13.0604 37.9515C13.134 37.7015 13.3104 37.4956 13.5604 37.3927L17.0458 35.9956L17.5899 33.9808C17.6488 33.7602 17.7811 33.5838 17.9723 33.4808L21.84 31.2455L23.1636 28.569L20.9282 27.966C20.6488 27.8925 20.4282 27.6719 20.34 27.3925L19.1341 23.1718L13.9575 21.7895C13.6487 21.7012 13.4134 21.4659 13.3546 21.1571L12.8398 18.6423L9.04566 20.8336L8.54565 22.7306L9.1486 25.7895Z" fill="#76B5C1"/>
<path d="M24.9726 49.3486C38.5769 49.3486 49.6054 38.3201 49.6054 24.7158C49.6054 11.1115 38.5769 0.0830078 24.9726 0.0830078C11.3683 0.0830078 0.339844 11.1115 0.339844 24.7158C0.339844 38.3201 11.3683 49.3486 24.9726 49.3486Z" fill="white"/>
<path d="M31.4727 0.833107C21.7078 -1.78459 11.1635 1.90666 5.04573 9.93621C-3.26323 20.9511 -1.08672 36.6278 9.92818 44.9368C12.5017 46.878 15.4283 48.3045 18.5313 49.1428C31.8697 52.7164 45.5611 44.7898 49.1347 31.4513C52.723 18.1128 44.8111 4.4067 31.4727 0.833107ZM45.1788 12.7745L43.6346 13.3039L40.1787 11.598L38.0169 10.1715C37.8845 10.0833 37.7375 10.0391 37.5757 10.0391L34.3845 9.98033L33.1933 9.18619L34.6786 7.49499L37.3992 8.2303C37.5169 8.25971 37.6493 8.27442 37.7816 8.245L40.9434 7.59793C42.6052 9.11267 44.0317 10.848 45.1788 12.7745ZM21.9578 1.70077L23.5461 3.50962C23.6196 3.59786 23.7225 3.67139 23.8255 3.71551L27.5461 5.40672L26.8549 6.45085L24.6343 6.58321C24.4431 6.59791 24.252 6.67144 24.1049 6.81851L20.7666 10.0539L16.4577 11.2892L10.7811 10.6127C10.3694 10.5686 9.98701 10.8186 9.86936 11.2303L9.22228 13.6422C9.16346 13.8627 9.19287 14.0833 9.31052 14.2745L10.3105 16.0098L9.94289 17.3922L7.19284 14.2598L6.95753 10.2892C10.6929 5.62731 16.0459 2.55373 21.9578 1.70077ZM12.6047 27.4953L9.16345 25.7894L8.53109 22.7305L9.0311 20.8335L12.8253 18.6422L13.34 21.157C13.3988 21.4658 13.6341 21.7158 13.9429 21.7894L19.1195 23.1717L20.3254 27.3924C20.3989 27.6718 20.6342 27.8924 20.9137 27.9659L23.149 28.5689L21.8254 31.2454L17.9577 33.4807C17.7666 33.5984 17.6195 33.7749 17.5754 33.9807L17.0312 35.9955L13.5459 37.3926C13.2959 37.4955 13.1194 37.7014 13.0459 37.9514L12.2665 40.8632L11.3547 40.2603L10.8841 36.3484L13.0018 28.4512C13.1341 28.0689 12.9576 27.6718 12.6047 27.4953ZM6.8546 39.4073C0.795668 31.6866 0.207415 20.9805 5.41339 12.6421L5.54575 14.8334C5.56045 15.0245 5.63399 15.201 5.75164 15.3334L9.04581 19.0834L7.88403 19.7599C7.69285 19.8776 7.54578 20.054 7.50166 20.2599L6.8546 22.6717C6.82518 22.7894 6.81047 22.9217 6.83989 23.0541L7.5899 26.7012C7.64873 26.9512 7.81049 27.1718 8.04579 27.2747L11.2517 28.8483L9.2664 36.2602C9.23699 36.3631 9.23698 36.4661 9.23698 36.569L9.76641 41.025C9.79582 41.275 9.92818 41.4809 10.1341 41.6279L12.34 43.0838C12.4135 43.128 12.487 43.1721 12.5753 43.1868C13.0165 43.3044 13.4724 43.0397 13.59 42.5985L14.5606 38.9808L18.046 37.5837C18.296 37.4808 18.4724 37.2749 18.546 37.0249L19.1048 34.9366L22.8843 32.7454C23.0313 32.6572 23.1343 32.5395 23.2078 32.3925L25.0902 28.5836C25.2961 28.1718 25.1196 27.6718 24.7078 27.4659C24.6637 27.4365 24.6049 27.4218 24.5608 27.4071L21.796 26.6718L20.5901 22.4511C20.5166 22.1717 20.2813 21.9511 20.0019 21.8776L14.8694 20.4952L14.2224 17.3481C14.1635 17.0834 13.9871 16.8628 13.7518 16.7599C13.5018 16.6422 13.2223 16.6569 12.9871 16.804L11.6635 17.5687L12.0017 16.2893C12.0606 16.0687 12.0312 15.8481 11.9135 15.6569L10.9135 13.9216L11.2811 12.5392L16.4136 13.1569C16.5312 13.1716 16.6342 13.1569 16.7371 13.1274L21.4137 11.7892C21.546 11.7451 21.6637 11.6862 21.7666 11.5833L25.0314 8.42147L27.3549 8.27441C27.6197 8.25971 27.855 8.12735 28.002 7.90676L29.4579 5.70084C29.7079 5.31848 29.605 4.80377 29.2226 4.55376C29.1932 4.52435 29.1491 4.50964 29.105 4.49494L24.6637 2.46549L23.9872 1.70077C29.4873 1.40665 34.9286 3.08315 39.311 6.42144L37.6492 6.75968L34.6198 5.95084C34.311 5.86261 33.9874 5.96555 33.7815 6.20085L31.3109 8.99502C31.0021 9.33326 31.0315 9.86268 31.3844 10.1715C31.4138 10.2009 31.4433 10.2156 31.4727 10.245L33.6786 11.7009C33.8109 11.7892 33.958 11.8333 34.1198 11.8333L37.311 11.8921L39.311 13.2157C39.3405 13.2304 39.3699 13.2598 39.3993 13.2745L43.2082 15.1569C43.3993 15.2598 43.6347 15.2745 43.8405 15.201L46.0023 14.4657C46.6347 15.7157 47.1494 17.0099 47.5612 18.3481L43.2523 18.6128L39.1493 16.7451L38.2963 14.2451C38.2081 13.9804 37.9875 13.7745 37.7228 13.7157L32.8992 12.4215C32.6786 12.3627 32.458 12.3921 32.2668 12.5098L29.2079 14.2745C28.9873 14.4069 28.8256 14.6422 28.7962 14.8922L28.0903 20.7452C28.0608 21.0393 28.1785 21.3188 28.3991 21.4952L33.3845 25.4218C33.5315 25.5394 33.708 25.5982 33.8845 25.5982L36.9434 25.6424L38.3846 27.2895L37.6345 30.0836C37.6051 30.2013 37.5904 30.3336 37.6198 30.466L39.0757 37.5837L38.2669 40.6132C38.2081 40.8338 38.2375 41.0544 38.3551 41.2456L39.5905 43.378C29.4726 51.3193 14.8106 49.5545 6.8546 39.4073ZM40.8993 42.0691L39.9875 40.4956L40.7669 37.6132C40.7964 37.4955 40.8111 37.3632 40.7817 37.2308L39.3258 30.113L40.1346 27.0836C40.2081 26.8189 40.1346 26.5247 39.9581 26.3188L37.9728 24.0541C37.811 23.8776 37.5904 23.7747 37.3551 23.7747L34.208 23.7159L29.8109 20.2599L30.4138 15.2892L32.8109 13.9069L36.8698 14.9951L37.6934 17.4216C37.7669 17.6422 37.9287 17.8187 38.1345 17.9069L42.7523 20.0099C42.8699 20.0687 43.017 20.0982 43.1493 20.0834L47.9877 19.7893C49.7965 27.9365 47.0906 36.4514 40.8993 42.0691Z" fill="#00393F"/>
<path d="M39.9875 40.4957L40.8993 42.0692C47.0906 36.4515 49.7965 27.9513 47.9729 19.7894L43.1346 20.0836C43.0022 20.0983 42.8699 20.0689 42.7375 20.01L38.1198 17.907C37.9139 17.8188 37.7522 17.6276 37.6786 17.4217L36.8551 14.9952L32.7962 13.907L30.3991 15.2894L29.7961 20.26L34.1933 23.716L37.3404 23.7748C37.5757 23.7748 37.7963 23.8777 37.9581 24.0542L39.9434 26.3043C40.1346 26.5101 40.1934 26.8043 40.1198 27.069L39.311 30.0984L40.7669 37.2162C40.7963 37.3486 40.7816 37.4662 40.7522 37.5986L39.9875 40.4957Z" fill="#76B5C1"/>
<path d="M43.6345 13.2891L45.1786 12.7597C44.0168 10.8332 42.605 9.0979 40.9433 7.58317L37.7814 8.23024C37.6491 8.25965 37.5167 8.24494 37.3991 8.21553L34.6784 7.48022L33.1931 9.18614L34.3843 9.98027L37.5755 10.0391C37.7373 10.0391 37.8844 10.0832 38.0167 10.1715L40.1785 11.5979L43.6345 13.2891Z" fill="#76B5C1"/>
<path d="M23.5313 3.50954L21.9577 1.70068C16.0459 2.55364 10.6928 5.62722 6.97217 10.2891L7.20746 14.2597L9.95751 17.3921L10.3252 16.0098L9.32515 14.2744C9.2075 14.0833 9.17808 13.8627 9.23691 13.6421L9.88398 11.2303C9.98693 10.8332 10.384 10.5685 10.7958 10.6126L16.4723 11.2891L20.7812 10.0538L24.1195 6.81842C24.2666 6.68606 24.4431 6.59783 24.649 6.58312L26.8696 6.45076L27.5608 5.40663L23.8401 3.71542C23.7078 3.67131 23.6195 3.59777 23.5313 3.50954Z" fill="#76B5C1"/>
<path d="M9.1486 25.7895L12.5898 27.4954C12.9428 27.6719 13.1193 28.069 13.0163 28.4513L10.8986 36.3485L11.3692 40.2604L12.281 40.8633L13.0604 37.9515C13.134 37.7015 13.3104 37.4956 13.5604 37.3927L17.0458 35.9956L17.5899 33.9808C17.6488 33.7602 17.7811 33.5838 17.9723 33.4808L21.84 31.2455L23.1636 28.569L20.9282 27.966C20.6488 27.8925 20.4282 27.6719 20.34 27.3925L19.1341 23.1718L13.9575 21.7895C13.6487 21.7012 13.4134 21.4659 13.3546 21.1571L12.8398 18.6423L9.04566 20.8336L8.54565 22.7306L9.1486 25.7895Z" fill="#76B5C1"/>
<path d="M27.28 48.1788L25.5447 48.2964C13.4416 48.9876 2.35313 37.458 2.26489 27.899V21.8107C2.26489 18.7959 4.70611 19.2959 7.72087 19.2959H21.6035C24.7506 19.2959 27.3094 18.9136 27.2947 22.0607L27.28 48.1788Z" fill="white"/>
<path d="M5.25009 30.7228L4.27948 31.7964V34.9288H0V22.2815H4.27948V26.8698L8.51486 22.2815H13.2502L8.08838 27.8551L13.5002 34.9435H8.47073L5.25009 30.7228Z" fill="#00393F"/>
<path d="M21.1329 34.9139C19.1917 34.9139 17.6769 34.3992 16.5887 33.3698C15.5004 32.3404 14.9563 30.9139 14.9563 29.0609V22.252H19.2211V28.9285C19.2211 29.8403 19.3828 30.5021 19.7064 30.9139C20.0446 31.3256 20.5299 31.5315 21.1476 31.5315C21.7652 31.5315 22.2505 31.3256 22.5741 30.9139C22.9123 30.5021 23.0741 29.8403 23.0741 28.9285V22.252H27.2653V29.0609C27.2653 30.9139 26.7212 32.3551 25.633 33.3698C24.5888 34.4139 23.0741 34.9139 21.1329 34.9139Z" fill="#00393F"/>
<path d="M0 37.3992H6.29423C7.72072 37.3992 8.97075 37.6492 10.059 38.1639C11.1473 38.6639 12.0002 39.3845 12.5885 40.3257C13.1914 41.2669 13.5002 42.3698 13.5002 43.6493C13.5002 44.9287 13.1914 46.0317 12.5885 46.9729C11.9855 47.9141 11.1473 48.6347 10.059 49.1494C8.97075 49.6494 7.72072 49.8994 6.29423 49.8994H0V37.3992ZM6.10305 46.6346C7.02953 46.6346 7.76484 46.3846 8.30897 45.8699C8.8678 45.3405 9.14722 44.6052 9.14722 43.664C9.14722 42.7228 8.8678 42.0022 8.30897 41.4875C7.76484 40.9581 7.02953 40.6933 6.10305 40.6933H4.29419V46.6346H6.10305Z" fill="#E6B427"/>
<path d="M20.9269 49.929C19.7063 49.929 18.618 49.6643 17.6474 49.1202C16.6768 48.5907 15.9268 47.8407 15.368 46.8995C14.8238 45.9436 14.5444 44.8701 14.5444 43.6642C14.5444 42.4583 14.8238 41.3994 15.368 40.4582C15.9121 39.5023 16.6768 38.7523 17.6474 38.2229C18.618 37.6935 19.7063 37.4141 20.9269 37.4141C22.1475 37.4141 23.2358 37.6788 24.2064 38.2229C25.177 38.7523 25.927 39.5023 26.4858 40.4582C27.0299 41.3994 27.3094 42.473 27.3094 43.6642C27.3094 44.8554 27.0299 45.9436 26.4858 46.8995C25.9417 47.8407 25.177 48.5907 24.2064 49.1202C23.2358 49.6496 22.1475 49.929 20.9269 49.929ZM20.9269 46.6642C21.3975 46.6642 21.824 46.5466 22.2063 46.3113C22.5887 46.0613 22.8975 45.7083 23.1328 45.2671C23.3534 44.8112 23.4711 44.2818 23.4711 43.6789C23.4711 43.0759 23.3534 42.5465 23.1328 42.1053C22.9122 41.6494 22.6034 41.2965 22.2063 41.0612C21.824 40.8112 21.4122 40.6788 20.9269 40.6788C20.4563 40.6788 20.0298 40.8112 19.6328 41.0612C19.2504 41.2965 18.9563 41.6494 18.7357 42.1053C18.5151 42.5465 18.3974 43.0759 18.3974 43.6789C18.3974 44.2818 18.5151 44.8112 18.7357 45.2671C18.9563 45.7083 19.2651 46.0613 19.6328 46.3113C20.0298 46.5466 20.4563 46.6642 20.9269 46.6642Z" fill="#E6B427"/>
<path d="M79.1176 34.7861L74.5722 28.5294V34.7861H70V15H74.5722V25.9358L79.0909 19.8663H84.7326L78.5294 27.3529L84.7861 34.7861H79.1176Z" fill="#012940"/>
<path d="M101.261 19.8663V34.7861H96.6889V32.754C96.2254 33.4135 95.5926 33.9483 94.7905 34.3583C94.0062 34.7504 93.1327 34.9465 92.1702 34.9465C91.0293 34.9465 90.0222 34.697 89.1488 34.1979C88.2753 33.6809 87.598 32.9412 87.1167 31.9786C86.6354 31.016 86.3948 29.8841 86.3948 28.5829V19.8663H90.9402V27.9679C90.9402 28.9661 91.1987 29.7415 91.7156 30.2941C92.2326 30.8467 92.9277 31.123 93.8012 31.123C94.6924 31.123 95.3965 30.8467 95.9135 30.2941C96.4304 29.7415 96.6889 28.9661 96.6889 27.9679V19.8663H101.261Z" fill="#012940"/>
<path d="M103.636 27.2995C103.636 25.7665 103.921 24.4207 104.492 23.262C105.08 22.1034 105.873 21.2121 106.871 20.5882C107.87 19.9643 108.984 19.6524 110.214 19.6524C111.194 19.6524 112.085 19.8574 112.887 20.2674C113.707 20.6774 114.349 21.2299 114.813 21.9251V15H119.385V34.7861H114.813V32.6471C114.385 33.3601 113.77 33.9305 112.968 34.3583C112.183 34.7861 111.265 35 110.214 35C108.984 35 107.87 34.6881 106.871 34.0642C105.873 33.4225 105.08 32.5223 104.492 31.3636C103.921 30.1872 103.636 28.8324 103.636 27.2995ZM114.813 27.3262C114.813 26.1854 114.492 25.2852 113.85 24.6257C113.226 23.9661 112.46 23.6364 111.551 23.6364C110.641 23.6364 109.866 23.9661 109.224 24.6257C108.601 25.2674 108.289 26.1586 108.289 27.2995C108.289 28.4403 108.601 29.3494 109.224 30.0267C109.866 30.6863 110.641 31.016 111.551 31.016C112.46 31.016 113.226 30.6863 113.85 30.0267C114.492 29.3672 114.813 28.467 114.813 27.3262Z" fill="#012940"/>
<path d="M129.484 35C128.022 35 126.703 34.6881 125.527 34.0642C124.368 33.4403 123.45 32.549 122.773 31.3904C122.113 30.2317 121.784 28.877 121.784 27.3262C121.784 25.7932 122.122 24.4474 122.8 23.2888C123.477 22.1123 124.404 21.2121 125.58 20.5882C126.757 19.9643 128.076 19.6524 129.538 19.6524C130.999 19.6524 132.318 19.9643 133.495 20.5882C134.671 21.2121 135.598 22.1123 136.275 23.2888C136.953 24.4474 137.292 25.7932 137.292 27.3262C137.292 28.8592 136.944 30.2139 136.249 31.3904C135.571 32.549 134.636 33.4403 133.441 34.0642C132.265 34.6881 130.946 35 129.484 35ZM129.484 31.0428C130.357 31.0428 131.097 30.7219 131.703 30.0802C132.327 29.4385 132.639 28.5205 132.639 27.3262C132.639 26.1319 132.336 25.2139 131.73 24.5722C131.142 23.9305 130.411 23.6096 129.538 23.6096C128.646 23.6096 127.906 23.9305 127.318 24.5722C126.73 25.1961 126.436 26.1141 126.436 27.3262C126.436 28.5205 126.721 29.4385 127.292 30.0802C127.88 30.7219 128.611 31.0428 129.484 31.0428Z" fill="#012940"/>
<path d="M158.755 19.7059C160.608 19.7059 162.079 20.2674 163.166 21.3904C164.272 22.5134 164.824 24.0731 164.824 26.0695V34.7861H160.279V26.6845C160.279 25.7219 160.02 24.9822 159.503 24.4652C159.004 23.9305 158.309 23.6631 157.418 23.6631C156.526 23.6631 155.822 23.9305 155.305 24.4652C154.806 24.9822 154.557 25.7219 154.557 26.6845V34.7861H150.011V26.6845C150.011 25.7219 149.753 24.9822 149.236 24.4652C148.737 23.9305 148.042 23.6631 147.15 23.6631C146.259 23.6631 145.555 23.9305 145.038 24.4652C144.539 24.9822 144.289 25.7219 144.289 26.6845V34.7861H139.717V19.8663H144.289V21.738C144.753 21.1141 145.359 20.6239 146.108 20.2674C146.856 19.893 147.703 19.7059 148.648 19.7059C149.771 19.7059 150.769 19.9465 151.642 20.4278C152.534 20.9091 153.229 21.5954 153.728 22.4866C154.245 21.6667 154.949 20.9982 155.84 20.4813C156.731 19.9643 157.703 19.7059 158.755 19.7059Z" fill="#012940"/>
<path d="M182.754 19.8663V34.7861H178.182V32.754C177.719 33.4135 177.086 33.9483 176.284 34.3583C175.5 34.7504 174.626 34.9465 173.664 34.9465C172.523 34.9465 171.516 34.697 170.642 34.1979C169.769 33.6809 169.091 32.9412 168.61 31.9786C168.129 31.016 167.888 29.8841 167.888 28.5829V19.8663H172.434V27.9679C172.434 28.9661 172.692 29.7415 173.209 30.2941C173.726 30.8467 174.421 31.123 175.295 31.123C176.186 31.123 176.89 30.8467 177.407 30.2941C177.924 29.7415 178.182 28.9661 178.182 27.9679V19.8663H182.754Z" fill="#012940"/>
<path d="M195.13 19.7059C196.876 19.7059 198.267 20.2763 199.301 21.4171C200.352 22.5401 200.878 24.0909 200.878 26.0695V34.7861H196.333V26.6845C196.333 25.6863 196.074 24.9109 195.557 24.3583C195.04 23.8057 194.345 23.5294 193.472 23.5294C192.598 23.5294 191.903 23.8057 191.386 24.3583C190.869 24.9109 190.611 25.6863 190.611 26.6845V34.7861H186.039V19.8663H190.611V21.8449C191.074 21.1854 191.698 20.6684 192.482 20.2941C193.267 19.902 194.149 19.7059 195.13 19.7059Z" fill="#012940"/>
<path d="M203.146 27.2995C203.146 25.7665 203.432 24.4207 204.002 23.262C204.59 22.1034 205.383 21.2121 206.382 20.5882C207.38 19.9643 208.494 19.6524 209.724 19.6524C210.704 19.6524 211.596 19.8574 212.398 20.2674C213.218 20.6774 213.859 21.2299 214.323 21.9251V15H218.895V34.7861H214.323V32.6471C213.895 33.3601 213.28 33.9305 212.478 34.3583C211.694 34.7861 210.776 35 209.724 35C208.494 35 207.38 34.6881 206.382 34.0642C205.383 33.4225 204.59 32.5223 204.002 31.3636C203.432 30.1872 203.146 28.8324 203.146 27.2995ZM214.323 27.3262C214.323 26.1854 214.002 25.2852 213.36 24.6257C212.736 23.9661 211.97 23.6364 211.061 23.6364C210.152 23.6364 209.376 23.9661 208.735 24.6257C208.111 25.2674 207.799 26.1586 207.799 27.2995C207.799 28.4403 208.111 29.3494 208.735 30.0267C209.376 30.6863 210.152 31.016 211.061 31.016C211.97 31.016 212.736 30.6863 213.36 30.0267C214.002 29.3672 214.323 28.467 214.323 27.3262Z" fill="#012940"/>
<path d="M228.994 35C227.533 35 226.213 34.6881 225.037 34.0642C223.878 33.4403 222.96 32.549 222.283 31.3904C221.623 30.2317 221.294 28.877 221.294 27.3262C221.294 25.7932 221.632 24.4474 222.31 23.2888C222.987 22.1123 223.914 21.2121 225.09 20.5882C226.267 19.9643 227.586 19.6524 229.048 19.6524C230.509 19.6524 231.828 19.9643 233.005 20.5882C234.181 21.2121 235.108 22.1123 235.786 23.2888C236.463 24.4474 236.802 25.7932 236.802 27.3262C236.802 28.8592 236.454 30.2139 235.759 31.3904C235.082 32.549 234.146 33.4403 232.951 34.0642C231.775 34.6881 230.456 35 228.994 35ZM228.994 31.0428C229.868 31.0428 230.607 30.7219 231.213 30.0802C231.837 29.4385 232.149 28.5205 232.149 27.3262C232.149 26.1319 231.846 25.2139 231.24 24.5722C230.652 23.9305 229.921 23.6096 229.048 23.6096C228.156 23.6096 227.417 23.9305 226.828 24.5722C226.24 25.1961 225.946 26.1141 225.946 27.3262C225.946 28.5205 226.231 29.4385 226.802 30.0802C227.39 30.7219 228.121 31.0428 228.994 31.0428Z" fill="#012940"/>
</svg>
