<svg width="201" height="200" viewBox="0 0 201 200" fill="none" xmlns="http://www.w3.org/2000/svg">
<path d="M162.03 39.8242L111.708 112.468L106.463 120.04V145.466L125.585 126.778L115.819 108.548" fill="white"/>
<path d="M88.6946 114.603L51.75 103.301L162.961 37.5391V137.324L107.355 120.312" fill="#DEFCF8"/>
<path d="M106.463 145.466L89.6716 114.903L162.03 39.8242L108.024 117.787L106.463 145.466Z" fill="#8DEBDD"/>
<path d="M164.219 35.3336C163.427 34.8816 162.453 34.8893 161.669 35.3534L115.139 62.8677C113.932 63.5814 113.532 65.1384 114.246 66.3454C114.96 67.5523 116.517 67.9522 117.724 67.2387L151.108 47.4977L88.9248 112.019L57.997 102.557L98.3592 78.6893C99.5663 77.9754 99.9662 76.4184 99.2524 75.2113C98.539 74.0045 96.9818 73.6041 95.7747 74.3181L50.4577 101.115C49.5919 101.627 49.1098 102.602 49.2288 103.601C49.3479 104.6 50.0454 105.435 51.0072 105.729L87.9427 117.029L104.238 146.688C104.255 146.719 104.272 146.745 104.29 146.768C104.562 147.221 104.97 147.592 105.478 147.806C105.796 147.939 106.131 148.005 106.463 148.005C107.113 148.005 107.754 147.754 108.238 147.281L126.974 128.97L162.218 139.752C162.462 139.826 162.712 139.863 162.961 139.863C163.498 139.863 164.029 139.693 164.471 139.365C165.118 138.886 165.5 138.129 165.5 137.324V37.539C165.5 36.6272 165.011 35.7853 164.219 35.3336ZM142.035 64.2296L104.376 118.594C104.082 119.018 103.924 119.523 103.924 120.039V135.571L92.7974 115.318L142.035 64.2296ZM109.002 139.434V123.472L121.441 127.277L109.002 139.434ZM110.53 118.628L160.422 46.6045V133.892L110.53 118.628Z" fill="#00393F"/>
<path d="M77.2482 123.252C76.2565 122.261 74.6492 122.261 73.6572 123.252L49.9546 146.955C48.9631 147.946 48.9631 149.554 49.9546 150.546C50.4507 151.041 51.1004 151.289 51.7502 151.289C52.3999 151.289 53.0497 151.041 53.5456 150.545L77.2482 126.843C78.2397 125.852 78.2397 124.244 77.2482 123.252Z" fill="#00393F"/>
<path d="M42.0835 154.826L36.2436 160.666C35.2521 161.657 35.2521 163.265 36.2436 164.257C36.7395 164.752 37.3893 165 38.039 165C38.6887 165 39.3385 164.752 39.8344 164.256L45.6742 158.416C46.6657 157.425 46.6657 155.817 45.6742 154.825C44.6825 153.834 43.0752 153.834 42.0835 154.826Z" fill="#00393F"/>
<path d="M69.9246 159.772C69.254 159.772 68.6017 160.044 68.1294 160.516C67.6572 160.988 67.3855 161.641 67.3855 162.311C67.3855 162.979 67.6569 163.634 68.1294 164.106C68.6017 164.578 69.2568 164.85 69.9246 164.85C70.5923 164.85 71.2474 164.578 71.7194 164.106C72.1917 163.634 72.4636 162.979 72.4636 162.311C72.4636 161.641 72.1919 160.988 71.7194 160.516C71.2474 160.044 70.5923 159.772 69.9246 159.772Z" fill="#00393F"/>
<path d="M87.02 141.624L74.4653 154.179C73.4738 155.17 73.4738 156.778 74.4653 157.769C74.9612 158.265 75.6109 158.513 76.2607 158.513C76.9104 158.513 77.5602 158.265 78.0561 157.769L90.6107 145.215C91.6022 144.223 91.6022 142.616 90.6107 141.624C89.6197 140.633 88.0125 140.633 87.02 141.624Z" fill="#00393F"/>
<path d="M130.35 140.66L117.761 153.249C116.77 154.241 116.77 155.848 117.761 156.84C118.257 157.336 118.907 157.584 119.557 157.584C120.206 157.584 120.856 157.336 121.352 156.84L133.941 144.251C134.932 143.26 134.932 141.652 133.941 140.66C132.949 139.669 131.342 139.669 130.35 140.66Z" fill="#00393F"/>
<path d="M105.688 73.9442C106.355 73.9442 107.01 73.6751 107.483 73.2003C107.955 72.728 108.227 72.0755 108.227 71.4077C108.227 70.7374 107.955 70.0823 107.483 69.61C107.01 69.1378 106.355 68.8661 105.688 68.8661C105.02 68.8661 104.365 69.1378 103.892 69.61C103.42 70.0823 103.148 70.7374 103.148 71.4077C103.148 72.0755 103.42 72.728 103.892 73.2003C104.365 73.6751 105.02 73.9442 105.688 73.9442Z" fill="#00393F"/>
</svg>
