<svg width="200" height="200" viewBox="0 0 200 200" fill="none" xmlns="http://www.w3.org/2000/svg">
<path d="M107.624 77.1682V92.3794H162.461C159.084 63.6807 136.322 40.9175 107.624 37.5391V59.651" fill="#8DEBDD"/>
<path d="M162.461 94.9182H107.624C106.222 94.9182 105.085 93.7812 105.085 92.3791V77.1679C105.085 75.7658 106.222 74.6288 107.624 74.6288C109.026 74.6288 110.163 75.7658 110.163 77.1679V89.8401H159.538C155.339 64.4312 135.571 44.6626 110.163 40.4615V59.6507C110.163 61.0528 109.026 62.1898 107.624 62.1898C106.222 62.1898 105.085 61.0528 105.085 59.6507V37.5391C105.085 36.8142 105.395 36.1235 105.936 35.6416C106.478 35.16 107.199 34.933 107.92 35.0173C122.365 36.7177 136.007 43.3416 146.333 53.6687C156.66 63.9958 163.283 77.6379 164.982 92.0823C165.067 92.8027 164.84 93.5245 164.358 94.0664C163.877 94.6084 163.186 94.9182 162.461 94.9182Z" fill="#00393F"/>
<path d="M107.624 70.8754C106.222 70.8754 105.085 69.7384 105.085 68.3363V68.2693C105.085 66.8672 106.222 65.7302 107.624 65.7302C109.026 65.7302 110.163 66.8672 110.163 68.2693V68.3363C110.163 69.7384 109.026 70.8754 107.624 70.8754Z" fill="#00393F"/>
<path d="M96.4452 103.558V44.6484C63.9123 44.6484 37.5391 71.0216 37.5391 103.555C37.5391 136.088 63.9123 162.461 96.4452 162.461C128.978 162.461 155.351 136.088 155.351 103.555V103.558H96.4452Z" fill="#DEFCF8"/>
<path d="M94.7529 152.501C94.7321 152.501 94.7113 152.501 94.6904 152.5C83.3391 152.226 72.5963 148.357 63.6235 141.311C62.5206 140.445 62.3284 138.849 63.1947 137.746C64.0605 136.643 65.6563 136.451 66.7598 137.317C74.8647 143.681 84.5654 147.176 94.8131 147.424C96.2149 147.458 97.3242 148.622 97.2902 150.023C97.2564 151.404 96.1265 152.501 94.7529 152.501Z" fill="#00393F"/>
<path d="M101.954 152.157C100.686 152.157 99.5901 151.209 99.4362 149.918C99.2701 148.526 100.264 147.262 101.657 147.096L101.711 147.09C103.102 146.924 104.366 147.918 104.533 149.31C104.699 150.703 103.704 151.966 102.312 152.132L102.258 152.139C102.156 152.151 102.055 152.157 101.954 152.157Z" fill="#00393F"/>
<path d="M144.153 138.108C151.195 128.401 155.351 116.464 155.351 103.555V103.558H96.4452L144.153 138.108Z" fill="white"/>
<path d="M155.351 101.016C155.306 101.016 155.262 101.017 155.218 101.019H98.9843V44.6484C98.9843 43.2464 97.8473 42.1094 96.4452 42.1094C80.0325 42.1094 64.6024 48.5009 52.9968 60.1062C41.3916 71.7117 35 87.1418 35 103.555C35 119.967 41.3916 135.397 52.9968 147.003C64.6024 158.608 80.0325 165 96.4452 165C112.858 165 128.288 158.608 139.894 147.003C151.499 135.397 157.89 119.967 157.89 103.555C157.89 102.152 156.753 101.016 155.351 101.016ZM96.4452 159.922C65.3643 159.922 40.0781 134.635 40.0781 103.555C40.0781 73.3253 64.0001 48.5776 93.9061 47.2441V103.558C93.9061 104.404 94.3213 105.151 94.9571 105.612C94.9568 105.613 94.9563 105.614 94.956 105.615L140.54 138.626C130.204 151.595 114.28 159.922 96.4452 159.922ZM143.523 134.517L104.28 106.097H152.756C152.289 116.56 148.954 126.288 143.523 134.517Z" fill="#00393F"/>
</svg>
